<svg width="74" height="74" viewBox="0 0 74 74" fill="none" xmlns="http://www.w3.org/2000/svg">
<path fill-rule="evenodd" clip-rule="evenodd" d="M37 72.52C56.6172 72.52 72.52 56.6172 72.52 37C72.52 17.3828 56.6172 1.48 37 1.48C17.3828 1.48 1.48 17.3828 1.48 37C1.48 56.6172 17.3828 72.52 37 72.52ZM37 74C57.4345 74 74 57.4345 74 37C74 16.5655 57.4345 0 37 0C16.5655 0 0 16.5655 0 37C0 57.4345 16.5655 74 37 74Z" fill="white"/>
<path d="M54.39 36.359C54.8833 36.6439 54.8833 37.3559 54.39 37.6408L28.86 52.3805C28.3667 52.6653 27.75 52.3093 27.75 51.7396L27.75 22.2601C27.75 21.6905 28.3667 21.3345 28.86 21.6193L54.39 36.359Z" fill="white"/>
</svg>
